# AST/ASF file generated using VICON BodyLanguage
# -----------------------------------------------
:version 1.10
:name VICON
:units
  mass 1.0
  length 0.45
  angle deg
:documentation
   .ast/.asf automatically generated from VICON data using
   VICON BodyBuilder and BodyLanguage model FoxedUp or BRILLIANT.MOD
:root
   order TX TY TZ RX RY RZ
   axis XYZ
   position 0 0 0  
   orientation 0 0 0 
:bonedata
  begin
     id 1 
     name lhipjoint
     direction 0.588788 -0.725889 0.355548 
     length 2.37778 
     axis 0 0 0  XYZ
  end
  begin
     id 2 
     name lfemur
     direction 0.34202 -0.939693 0  
     length 6.86393  
     axis 0 0 20  XYZ
    dof rx ry rz
    limits (-160.0 20.0)
           (-70.0 70.0)
           (-60.0 70.0)
  end
  begin
     id 3 
     name ltibia
     direction 0.34202 -0.939693 0   
     length 7.32851   
     axis 0 0 20   XYZ
    dof rx
    limits (-10.0 170.0)
  end
  begin
     id 4 
     name lfoot
     direction 0.0626533 -0.172138 0.983078   
     length 1.98929   
     axis -90 7.62852e-016 20   XYZ
    dof rx rz
    limits (-45.0 90.0)
           (-70.0 20.0)
  end
  begin
     id 5 
     name ltoes
     direction 1.53647e-011 -4.21734e-011 1   
     length 1.00479   
     axis -90 7.62852e-016 20   XYZ
    dof rx
    limits (-90.0 20.0)
  end
  begin
     id 6 
     name rhipjoint
     direction -0.59141 -0.724168 0.354705   
     length 2.38343  
     axis 0 0 0  XYZ 
  end
  begin
     id 7 
     name rfemur
     direction -0.34202 -0.939693 0   
     length 6.95589   
     axis 0 0 -20   XYZ
    dof rx ry rz
    limits (-160.0 20.0)
           (-70.0 70.0)
           (-70.0 60.0)
  end
  begin
     id 8 
     name rtibia
     direction -0.34202 -0.939693 0   
     length 7.32327   
     axis 0 0 -20   XYZ
    dof rx
    limits (-10.0 170.0)
 end
 begin
     id 9 
     name rfoot
     direction -0.0660461 -0.18146 0.981178   
     length 1.85272  
     axis -90 -7.62852e-016 -20   XYZ
    dof rx rz
    limits (-45.0 90.0)
           (-20.0 70.0)
  end
  begin
     id 10 
     name rtoes
     direction -1.53586e-011 -4.21988e-011 1   
     length 0.93746   
     axis -90 -7.62852e-016 -20   XYZ
    dof rx
    limits (-90.0 20.0)
  end
  begin
     id 11 
     name lowerback
     direction -0.0107982 0.991059 0.13299   
     length 1.98691   
     axis 0 0 0   XYZ
    dof rx ry rz
    limits (-20.0 45.0)
           (-30.0 30.0)
           (-30.0 30.0)
  end
  begin
     id 12 
     name upperback
     direction 0.0076296 0.999916 0.0104576   
     length 1.99501   
     axis 0 0 0   XYZ
    dof rx ry rz
    limits (-20.0 45.0)
           (-30.0 30.0)
           (-30.0 30.0)
  end
  begin
     id 13 
     name thorax
     direction 0.01176 0.998615 -0.0512909   
     length 2.03144   
     axis 0 0 0   XYZ
    dof rx ry rz
    limits (-20.0 45.0)
           (-30.0 30.0)
           (-30.0 30.0)
  end
  begin
     id 14 
     name lowerneck
     direction -0.0171909 0.999644 0.0204011   
     length 1.71818   
     axis 0 0 0   XYZ
    dof rx ry rz
    limits (-20.0 45.0)
           (-30.0 30.0)
           (-30.0 30.0)
  end
  begin
     id 15 
     name upperneck
     direction 0.0250902 0.997482 -0.0663316   
     length 1.66199   
     axis 0 0 0   XYZ
    dof rx ry rz
    limits (-20.0 45.0)
           (-30.0 30.0)
           (-30.0 30.0)
  end
  begin
     id 16
     name head
     direction 0.00881535 0.99956 -0.0283365  
     length 1.81545  
     axis 0 0 0   XYZ
    dof rx ry rz
    limits (-20.0 45.0)
           (-30.0 30.0)
           (-30.0 30.0)
  end
  begin
     id 17 
     name lclavicle
     direction 0.840411 0.486876 -0.238035  
     length 3.30409  
     axis 0 0 0   XYZ
    dof ry rz
    limits (-20.0 10.0)
           (0.0 20.0)
  end
  begin
     id 18 
     name lhumerus
     direction 1 -4.48977e-011 -5.16239e-027   
     length 4.62672   
     axis 180 -30 -90   XYZ
    dof rx ry rz
    limits (-60.0 90.0)
           (-90.0 90.0)
           (-90.0 90.0)
  end
  begin
     id 19
     name lradius
     direction 1 -4.48977e-011 -8.71171e-027   
     length 3.11018   
     axis 180 -30 -90   XYZ
    dof rx
    limits (-10.0 170.0)
  end
  begin
     id 20
     name lwrist
     direction 1 -4.48912e-011 -1.03764e-026   
     length 1.55509   
     axis 9.09556e-015 90 90   XYZ
    dof ry
    limits (-180.0 0.0)
 end
  begin
     id 21 
     name lhand
     direction 1 -4.49072e-011 -2.07528e-026   
     length 0.743834   
     axis 1.3242e-014 90 90   XYZ
    dof rx rz
    limits (-90.0 90.0)
           (-45.0 45.0)
  end
  begin
     id 22 
     name lfingers
     direction 1 -4.48909e-011 -4.15056e-026   
     length 0.599698   
     axis 2.64841e-014 90 90   XYZ
    dof rx
    limits (0.0 90.0)
  end
  begin
     id 23
     name lthumb
     direction 0.707107 -6.35013e-011 0.707107   
     length 0.86105   
     axis -90 45 2.85299e-015   XYZ
    dof rx rz
    limits (-45.0 45.0)
           (-45.0 45.0)
  end
  begin
     id 24 
     name rclavicle
     direction -0.835208 0.500237 -0.228452   
     length 3.2716  
     axis 0 0 0   XYZ 
    dof ry rz
    limits (-10.0 20.0)
           (-20.0 0.0)
  end
  begin
     id 25 
     name rhumerus
     direction -1 -4.48978e-011 -5.1953e-028  
     length 4.55919   
     axis 180 30 90   XYZ
    dof rx ry rz
    limits (-90.0 60.0)
           (-90.0 90.0)
           (-90.0 90.0)
  end
  begin
     id 26 
     name rradius
     direction -1 -4.48961e-011 -5.99546e-027   
     length 3.22748   
     axis 180 30 90   XYZ
    dof rx
    limits (-10.0 170.0)
  end
  begin
     id 27 
     name rwrist
     direction -1 -4.48986e-011 -1.03764e-026   
     length 1.61374   
     axis 9.09556e-015 -90 -90   XYZ
    dof ry
    limits (-180.0 0.0)
  end
  begin
     id 28
     name rhand
     direction -1 -4.4899e-011 -2.07528e-026   
     length 0.700882   
     axis 1.3242e-014 -90 -90   XYZ
    dof rx rz
    limits (-90.0 90.0)
           (-45.0 45.0)
  end
  begin
     id 29
     name rfingers
     direction -1 -4.48991e-011 -4.15056e-026   
     length 0.565069   
     axis 2.64841e-014 -90 -90   XYZ
    dof rx
    limits (0.0 90.0)
  end
  begin
     id 30
     name rthumb
     direction -0.707107 -6.34804e-011 0.707107   
     length 0.811329   
     axis -90 -45 -2.85299e-015   XYZ
    dof rx rz
    limits (-45.0 45.0)
           (-45.0 45.0)
  end
:hierarchy
  begin
    root lhipjoint rhipjoint lowerback
    lhipjoint lfemur
    lfemur ltibia
    ltibia lfoot
    lfoot ltoes
    rhipjoint rfemur
    rfemur rtibia
    rtibia rfoot
    rfoot rtoes
    lowerback upperback
    upperback thorax
    thorax lowerneck lclavicle rclavicle
    lowerneck upperneck
    upperneck head
    lclavicle lhumerus
    lhumerus lradius
    lradius lwrist
    lwrist lhand lthumb
    lhand lfingers
    rclavicle rhumerus
    rhumerus rradius
    rradius rwrist
    rwrist rhand rthumb
    rhand rfingers
  end

#!OML:ASF F:\VICON\USERDATA\INSTALL\SteveWalk\SteveWalk.ASF
:FULLY-SPECIFIED
:DEGREES
257
root -0.0353857 16.0467 15.8543 19.9721 -7.38164 -2.50269
lowerback -16.7285 3.0391 2.06154
upperback -5.38824 3.6355 0.343664
thorax 3.71288 1.79154 -0.090182
lowerneck -5.64604 -0.590238 -1.89018
upperneck 7.85178 -0.760242 1.62005
head 3.55751 -0.36614 0.82912
rclavicle -8.04767e-015 1.0635e-014
rhumerus -12.9167 9.21648 -85.6205
rradius 51.8999
rwrist -14.9767
rhand -17.8309 -34.0024
rfingers 7.12502
rthumb 8.43357 -63.814
lclavicle -8.04767e-015 1.0635e-014
lhumerus -72.8618 27.3694 35.888
lradius 11.3799
lwrist -41.3049
lhand -14.5116 -15.7671
lfingers 7.12502
lthumb 11.6357 13.8898
rfemur -4.66552 -5.40208 22.6416
rtibia 20.5412
rfoot -23.6876 19.4882
rtoes -1.13928
lfemur -51.2756 10.4419 -23.8825
ltibia 13.0374
lfoot -10.116 0.627937
ltoes -1.71346
258
root -0.0331391 15.9997 16.0853 19.737 -7.45706 -1.85497
lowerback -16.5149 2.92083 1.21042
upperback -5.32176 3.63599 0.0811822
thorax 3.63717 1.79335 0.10303
lowerneck -5.86298 -0.641746 -1.91135
upperneck 7.7611 -0.842507 1.84734
head 3.5723 -0.397029 0.903937
rclavicle -8.07563e-016 -6.26172e-015
rhumerus -13.0137 9.53473 -85.6044
rradius 52.6134
rwrist -14.2776
rhand -18.0687 -31.4967
rfingers 7.12502
rthumb 8.20404 -61.3175
lclavicle -8.07563e-016 -6.26172e-015
lhumerus -73.4754 27.4817 34.4819
lradius 11.2463
lwrist -42.0001
lhand -14.1554 -15.5471
lfingers 7.12502
lthumb 11.9792 14.0901
rfemur -3.70575 -4.70892 21.7466
rtibia 20.8362
rfoot -23.0134 19.5439
rtoes 0.419066
lfemur -51.0901 10.2922 -24.7393
ltibia 13.0744
lfoot -10.476 -0.523953
ltoes -2.5147
259
root -0.0164855 15.962 16.3402 19.4411 -6.79422 -1.31563
lowerback -16.2273 2.67714 0.714292
upperback -5.42547 3.40931 -0.115981
thorax 3.35708 1.68277 0.113847
lowerneck -5.873 -0.760218 -1.95546
upperneck 7.91607 -1.01971 2.08308
head 3.63553 -0.476127 0.982011
rclavicle -1.13967e-014 5.96354e-015
rhumerus -13.7087 9.72528 -85.4922
rradius 53.7333
rwrist -14.1633
rhand -18.3557 -31.3622
rfingers 7.12502
rthumb 7.92706 -61.1935
lclavicle -1.13967e-014 5.96354e-015
lhumerus -73.9962 26.9518 33.8104
lradius 11.2553
lwrist -42.1591
lhand -14.1002 -15.8387
lfingers 7.12502
lthumb 12.0325 13.7954
rfemur -2.65943 -4.76943 21.0938
rtibia 21.4488
rfoot -23.2747 18.842
rtoes -4.335
lfemur -50.3832 8.41528 -24.1918
ltibia 13.319
lfoot -10.7121 -0.615306
ltoes 4.94515
260
root -0.00687545 15.924 16.5848 19.5434 -6.73787 -1.37367
lowerback -16.2447 2.74784 0.58137
upperback -5.6165 3.52594 -0.17997
thorax 3.16136 1.7412 0.138145
lowerneck -5.70776 -0.922608 -2.04093
upperneck 7.94296 -1.25324 2.31478
head 3.62222 -0.585459 1.06259
rclavicle 4.2102e-014 1.51573e-015
rhumerus -14.4838 9.75883 -85.3174
rradius 54.8122
rwrist -14.3231
rhand -18.6796 -31.7406
rfingers 7.12502
rthumb 7.61441 -61.5835
lclavicle 4.2102e-014 1.51573e-015
lhumerus -75.6167 27.3696 30.3035
lradius 10.9275
lwrist -45.4541
lhand -14.8356 -16.8578
lfingers 7.12502
lthumb 11.3233 12.8165
rfemur -2.12335 -4.22648 20.9023
rtibia 22.0301
rfoot -23.7198 17.7839
rtoes -12.869
lfemur -50.1272 7.06587 -23.1481
ltibia 14.2108
lfoot -10.7322 0.0206207
ltoes 3.97804
261
root -0.00142126 15.8763 16.8325 19.4853 -6.52353 -1.1995
lowerback -16.1498 2.68679 0.150303
upperback -5.7827 3.51512 -0.225461
thorax 2.913 1.73956 0.320351
lowerneck -5.46433 -1.06861 -2.24414
upperneck 7.88633 -1.45708 2.57746
head 3.56674 -0.683242 1.17575
rclavicle 2.17537e-015 3.46631e-015
rhumerus -15.3557 9.72717 -85.1319
rradius 55.7504
rwrist -14.3895
rhand -18.6282 -31.7647
rfingers 7.12502
rthumb 7.66402 -61.6059
lclavicle 2.17537e-015 3.46631e-015
lhumerus -77.1144 27.5986 27.3184
lradius 10.7772
lwrist -48.1393
lhand -15.2268 -17.2377
lfingers 7.12502
lthumb 10.946 12.457
rfemur -1.4882 -3.53236 20.6052
rtibia 22.6525
rfoot -23.423 16.8767
rtoes -18.2673
lfemur -50.2006 6.24719 -23.0627
ltibia 15.8295
lfoot -10.3944 0.0382671
ltoes -2.24066
262
root 0.00452945 15.8455 17.0887 19.2957 -6.44473 -0.745045
lowerback -16.0992 2.58866 -0.611247
upperback -5.80822 3.50786 -0.343843
thorax 2.82149 1.74176 0.61899
lowerneck -5.46437 -1.18007 -2.43283
upperneck 7.91311 -1.6206 2.92393
head 3.58928 -0.75566 1.31719
rclavicle 2.64969e-014 -6.90777e-015
rhumerus -16.1115 9.76948 -84.9462
rradius 56.6874
rwrist -14.5493
rhand -18.5506 -31.9125
rfingers 7.12502
rthumb 7.73896 -61.7509
lclavicle 2.64969e-014 -6.90777e-015
lhumerus -77.5437 27.4674 26.575
lradius 10.867
lwrist -48.2989
lhand -14.7352 -16.4381
lfingers 7.12502
lthumb 11.4201 13.2309
rfemur -0.907436 -2.78261 19.987
rtibia 23.3805
rfoot -21.8137 17.1234
rtoes -17.0477
lfemur -50.2088 5.94695 -23.8177
ltibia 17.717
lfoot -8.85154 -0.13261
ltoes -10.3935
263
root 0.0178238 15.8371 17.3531 19.291 -6.34952 -0.344482
lowerback -16.4075 2.52388 -1.21486
upperback -5.75054 3.52682 -0.517371
thorax 3.01975 1.75195 0.796377
lowerneck -5.60857 -1.32391 -2.52677
upperneck 7.90163 -1.83828 3.33437
head 3.62943 -0.848205 1.46063
rclavicle 2.65818e-014 4.27387e-015
rhumerus -16.7441 9.81701 -84.7944
rradius 57.5137
rwrist -14.7871
rhand -18.5954 -32.075
rfingers 7.12502
rthumb 7.69571 -61.915
lclavicle 2.65818e-014 4.27387e-015
lhumerus -78.5687 28.0839 23.9011
lradius 10.6707
lwrist -50.2832
lhand -14.7059 -16.3701
lfingers 7.12502
lthumb 11.4484 13.2973
rfemur -0.64031 -2.44947 19.3671
rtibia 24.2073
rfoot -20.0427 17.8943
rtoes -15.6002
lfemur -50.4069 5.5224 -24.3923
ltibia 19.6646
lfoot -5.9056 -0.105433
ltoes -18.8802
264
root 0.0376082 15.8421 17.6195 19.3857 -6.03476 -0.25959
lowerback -16.6981 2.48188 -1.32492
upperback -5.75409 3.49938 -0.65385
thorax 3.17221 1.73629 0.724109
lowerneck -5.77909 -1.47671 -2.59814
upperneck 7.86237 -2.07016 3.75758
head 3.66705 -0.94614 1.60381
rclavicle 4.43888e-015 5.96354e-016
rhumerus -17.5803 9.63017 -84.8004
rradius 58.2947
rwrist -14.8712
rhand -18.5801 -31.8621
rfingers 7.12502
rthumb 7.71043 -61.7015
lclavicle 4.43888e-015 5.96354e-016
lhumerus -80.522 29.0359 19.1316
lradius 10.2414
lwrist -54.379
lhand -15.6267 -17.1935
lfingers 7.12502
lthumb 10.5602 12.5212
rfemur -0.515538 -2.38098 19.1196
rtibia 25.2274
rfoot -18.1516 18.6331
rtoes -15.2109
lfemur -50.8963 4.54657 -23.9483
ltibia 21.7473
lfoot -3.35305 -0.156521
ltoes -20.2527
265
root 0.0527668 15.8441 17.8794 19.4266 -5.55729 -0.134428
lowerback -16.6812 2.37985 -1.4677
upperback -5.87564 3.39401 -0.821868
thorax 3.03871 1.68617 0.603932
lowerneck -6.03496 -1.60011 -2.66466
upperneck 8.00158 -2.26939 4.2055
head 3.78512 -1.02455 1.75812
rclavicle -1.12457e-014 7.95139e-015
rhumerus -18.8217 9.13779 -84.9682
rradius 59.2209
rwrist -14.7818
rhand -18.7104 -31.4588
rfingers 7.12502
rthumb 7.58468 -61.3028
lclavicle -1.12457e-014 7.95139e-015
lhumerus -81.1346 29.3002 17.2173
lradius 9.92508
lwrist -55.9721
lhand -16.6603 -17.4634
lfingers 7.12502
lthumb 9.56311 12.2996
rfemur -0.44211 -2.24076 18.9837
rtibia 26.4875
rfoot -15.2595 19.2028
rtoes -12.6222
lfemur -51.5265 3.50053 -23.3681
ltibia 23.8852
lfoot -1.81649 -0.49962
ltoes -15.3353
266
root 0.0594482 15.8358 18.1381 19.6493 -5.48582 0.146113
lowerback -16.7796 2.37601 -1.91929
upperback -6.13021 3.46901 -1.0857
thorax 2.80899 1.72891 0.591522
lowerneck -6.18266 -1.74152 -2.68431
upperneck 8.23892 -2.50506 4.65918
head 3.91938 -1.11887 1.90568
rclavicle -1.52195e-016 8.34896e-015
rhumerus -20.2419 8.58635 -85.1881
rradius 59.9895
rwrist -14.8246
rhand -18.8973 -31.3978
rfingers 7.12502
rthumb 7.40425 -61.2482
lclavicle -1.52195e-016 8.34896e-015
lhumerus -81.7604 29.3642 15.308
lradius 10.2204
lwrist -56.411
lhand -15.6368 -16.5105
lfingers 7.12502
lthumb 10.5505 13.2047
rfemur -0.891343 -1.84345 18.5809
rtibia 28.1922
rfoot -11.9519 19.6723
rtoes -9.27274
lfemur -52.259 3.19274 -23.4959
ltibia 25.9583
lfoot -0.764198 -1.10742
ltoes -12.9404
267
root 0.0686296 15.8167 18.4054 19.4739 -4.88478 0.759585
lowerback -16.7012 2.17861 -2.51539
upperback -6.22389 3.31444 -1.4295
thorax 2.6575 1.65781 0.530927
lowerneck -6.17458 -1.91548 -2.67205
upperneck 8.39788 -2.79291 5.14752
head 3.99974 -1.23803 2.05651
rclavicle -9.8181e-015 8.74653e-015
rhumerus -21.5489 8.01413 -85.4244
rradius 60.3494
rwrist -14.914
rhand -18.9682 -31.0469
rfingers 7.12502
rthumb 7.33581 -60.8997
lclavicle -9.8181e-015 8.74653e-015
lhumerus -81.8205 29.4289 14.3321
lradius 10.3582
lwrist -56.4059
lhand -15.0027 -15.6754
lfingers 7.12502
lthumb 11.1621 14.0077
rfemur -1.15368 -1.97824 18.0165
rtibia 30.4459
rfoot -8.71575 19.8262
rtoes -6.17894
lfemur -52.4076 2.73221 -24.2128
ltibia 27.9757
lfoot -0.300459 -1.93107
ltoes -8.36224
